# xmcd
#
# Track frame offsets:
#	150
#	18385
#	35655
#	49985
#	65680
#	81310
#	95910
#	111260
#	125660
#	138685
#	155730
#	171010
#	179285
#	190910
#	206635
#	222060
#
# Disc length: 3155 seconds
#
# Revision: 1
# Processed by: cddbd v1.4PL0 Copyright (c) Steve Scherf et al.
# Submitted via: audiograbber 1.80
#
DISCID=f80c5110
DTITLE=Glenn Miller - Kings of swing 1/4
DYEAR=1900
DGENRE=
TTITLE0=In the Mood
TTITLE1=American patrol
TTITLE2=String of pearls
TTITLE3=Boulder bluff
TTITLE4=Frenesi
TTITLE5=Pagan love song
TTITLE6=Take the "A" train
TTITLE7=Sliphorn jive
TTITLE8=Adios
TTITLE9=Georgia on my mind
TTITLE10=Rhapsody in blue
TTITLE11=Jeannie with the light brown hair
TTITLE12=Serenade in blue
TTITLE13=King porter stomp
TTITLE14=Sunrise serenade
TTITLE15=Tchaikovsky´s piano concert
EXTD=
EXTT0=
EXTT1=
EXTT2=
EXTT3=
EXTT4=
EXTT5=
EXTT6=
EXTT7=
EXTT8=
EXTT9=
EXTT10=
EXTT11=
EXTT12=
EXTT13=
EXTT14=
EXTT15=
PLAYORDER=
